<svg data-v-0dd9719b="" version="1.0" xmlns="http://www.w3.org/2000/svg" xmlns:xlink="http://www.w3.org/1999/xlink" width="100%" height="100%" viewBox="0 0 340.000000 250.000000" preserveAspectRatio="xMidYMid meet" color-interpolation-filters="sRGB" style="margin: auto;"> <rect data-v-0dd9719b="" x="0" y="0" width="100%" height="100%" fill="#fff" fill-opacity="1" class="background"></rect> <rect data-v-0dd9719b="" x="0" y="0" width="100%" height="100%" fill="url(#watermark)" fill-opacity="1" class="watermarklayer"></rect> <g data-v-0dd9719b="" fill="#333" class="icon-text-wrapper icon-svg-group iconsvg" transform="translate(73.44471740722656,98.12718772888184)"><g class="iconsvg-imagesvg" transform="translate(0,0)"><g><rect fill="#333" fill-opacity="0" stroke-width="2" x="0" y="0" width="60" height="53.745621971210255" class="image-rect"></rect> <svg x="0" y="0" width="60" height="53.745621971210255" filtersec="colorsb6719452477" class="image-svg-svg primary" style="overflow: visible;"><svg xmlns="http://www.w3.org/2000/svg" viewBox="0 0 111.63723754882812 100"><path d="M93.45 29.73a37.58 37.58 0 0 0-19.74-5.58H17.29V100h56.42a37.9 37.9 0 0 0 19.74-70.27z" fill="#6647ae"></path><path d="M93.45 29.73A38.08 38.08 0 0 0 56.42 0H0v75.85h56.42a38 38 0 0 0 37.92-37.93 37.51 37.51 0 0 0-.89-8.19z" fill="#9183d8" opacity=".8"></path></svg></svg> <!----></g></g> <g transform="translate(67,4.27369499206543)"><g data-gra="path-name" fill-rule="" class="tp-name iconsvg-namesvg"><g transform="scale(1)"><g><path d="M20.72-20.95Q21.54-20.95 22.05-20.44 22.55-19.92 22.55-19.06L22.55-19.06 22.55-1.59Q22.55-0.77 22.07-0.3 21.6 0.18 20.84 0.18L20.84 0.18Q20.07 0.18 19.63-0.3 19.18-0.77 19.18-1.59L19.18-1.59 19.18-13.75 14.17-4.25Q13.81-3.6 13.4-3.29 12.99-2.98 12.42-2.98L12.42-2.98Q11.86-2.98 11.45-3.28 11.04-3.57 10.68-4.25L10.68-4.25 5.64-13.6 5.64-1.59Q5.64-0.8 5.18-0.31 4.72 0.18 3.95 0.18L3.95 0.18Q3.19 0.18 2.74-0.3 2.3-0.77 2.3-1.59L2.3-1.59 2.3-19.06Q2.3-19.92 2.79-20.44 3.28-20.95 4.1-20.95L4.1-20.95Q5.25-20.95 5.9-19.68L5.9-19.68 12.45-7.2 18.98-19.68Q19.63-20.95 20.72-20.95L20.72-20.95ZM45.92-2.27Q46.1-1.89 46.1-1.51L46.1-1.51Q46.1-0.83 45.55-0.35 45.01 0.12 44.3 0.12L44.3 0.12Q43.83 0.12 43.41-0.13 43-0.38 42.76-0.91L42.76-0.91 40.99-4.87 30.6-4.87 28.83-0.91Q28.6-0.38 28.18-0.13 27.77 0.12 27.27 0.12L27.27 0.12Q26.59 0.12 26.03-0.35 25.47-0.83 25.47-1.51L25.47-1.51Q25.47-1.89 25.65-2.27L25.65-2.27 33.79-19.77Q34.06-20.36 34.6-20.67 35.15-20.98 35.77-20.98L35.77-20.98Q36.39-20.98 36.93-20.67 37.48-20.36 37.75-19.77L37.75-19.77 45.92-2.27ZM35.8-16.59L31.9-7.82 39.69-7.82 35.8-16.59ZM64.72-20.95Q65.55-20.95 66.03-20.44 66.52-19.92 66.52-19.06L66.52-19.06 66.52-1.74Q66.52-0.89 66.02-0.35 65.52 0.18 64.72 0.18L64.72 0.18Q63.78 0.18 63.27-0.5L63.27-0.5 52.5-14.52 52.5-1.74Q52.5-0.89 52.03-0.35 51.56 0.18 50.73 0.18L50.73 0.18Q49.9 0.18 49.43-0.35 48.96-0.89 48.96-1.74L48.96-1.74 48.96-19.06Q48.96-19.92 49.46-20.44 49.96-20.95 50.79-20.95L50.79-20.95Q51.7-20.95 52.21-20.27L52.21-20.27 62.95-6.32 62.95-19.06Q62.95-19.92 63.44-20.44 63.92-20.95 64.72-20.95L64.72-20.95ZM80.27 0.27Q77.23 0.27 75-1.03 72.78-2.33 71.57-4.75 70.36-7.17 70.36-10.42L70.36-10.42Q70.36-13.66 71.55-16.07 72.75-18.47 74.99-19.77 77.23-21.07 80.27-21.07L80.27-21.07Q83.31-21.07 85.54-19.77 87.77-18.47 88.96-16.07 90.16-13.66 90.16-10.42L90.16-10.42Q90.16-7.17 88.95-4.75 87.74-2.33 85.51-1.03 83.28 0.27 80.27 0.27L80.27 0.27ZM80.27-2.77Q83.14-2.77 84.74-4.75 86.35-6.73 86.35-10.42L86.35-10.42Q86.35-14.11 84.74-16.07 83.14-18.03 80.27-18.03L80.27-18.03Q77.38-18.03 75.77-16.07 74.16-14.11 74.16-10.42L74.16-10.42Q74.16-6.73 75.77-4.75 77.38-2.77 80.27-2.77L80.27-2.77ZM95.8 0Q94.94 0 94.47-0.47 94-0.94 94-1.77L94-1.77 94-19.06Q94-19.92 94.51-20.44 95.03-20.95 95.88-20.95L95.88-20.95Q96.77-20.95 97.29-20.44 97.8-19.92 97.8-19.06L97.8-19.06 97.8-3.13 106.1-3.13Q107.87-3.13 107.87-1.56L107.87-1.56Q107.87 0 106.1 0L106.1 0 95.8 0ZM118.52 0.27Q115.48 0.27 113.25-1.03 111.02-2.33 109.81-4.75 108.6-7.17 108.6-10.42L108.6-10.42Q108.6-13.66 109.8-16.07 110.99-18.47 113.24-19.77 115.48-21.07 118.52-21.07L118.52-21.07Q121.56-21.07 123.79-19.77 126.02-18.47 127.21-16.07 128.41-13.66 128.41-10.42L128.41-10.42Q128.41-7.17 127.2-4.75 125.99-2.33 123.76-1.03 121.53 0.27 118.52 0.27L118.52 0.27ZM118.52-2.77Q121.38-2.77 122.99-4.75 124.6-6.73 124.6-10.42L124.6-10.42Q124.6-14.11 122.99-16.07 121.38-18.03 118.52-18.03L118.52-18.03Q115.63-18.03 114.02-16.07 112.41-14.11 112.41-10.42L112.41-10.42Q112.41-6.73 114.02-4.75 115.63-2.77 118.52-2.77L118.52-2.77Z" transform="translate(-2.299999952316284, 21.06999969482422)"></path></g> <!----> <!----> <!----> <!----> <!----> <!----> <g data-gra="path-name-1" fill="#333" transform="translate(0,24.34000015258789)"><g transform="scale(0.99089)"><path d="M14.97-10.69Q16.76-10.19 17.75-8.87 18.73-7.55 18.73-5.64L18.73-5.64Q18.73-2.99 16.84-1.5 14.94 0 11.63 0L11.63 0 4.05 0Q3.2 0 2.72-0.47 2.23-0.94 2.23-1.79L2.23-1.79 2.23-18.91Q2.23-19.76 2.72-20.23 3.2-20.7 4.05-20.7L4.05-20.7 11.33-20.7Q14.56-20.7 16.4-19.27 18.23-17.85 18.23-15.3L18.23-15.3Q18.23-13.65 17.37-12.45 16.5-11.24 14.97-10.69L14.97-10.69ZM5.93-17.76L5.93-11.98 10.72-11.98Q14.62-11.98 14.62-14.88L14.62-14.88Q14.62-16.35 13.65-17.06 12.68-17.76 10.72-17.76L10.72-17.76 5.93-17.76ZM11.21-2.94Q13.27-2.94 14.21-3.67 15.15-4.4 15.15-5.96L15.15-5.96Q15.15-7.52 14.19-8.28 13.24-9.04 11.21-9.04L11.21-9.04 5.93-9.04 5.93-2.94 11.21-2.94ZM24.07 0Q23.22 0 22.75-0.47 22.28-0.94 22.28-1.76L22.28-1.76 22.28-18.97Q22.28-19.82 22.8-20.33 23.31-20.84 24.16-20.84L24.16-20.84Q25.04-20.84 25.56-20.33 26.07-19.82 26.07-18.97L26.07-18.97 26.07-3.11 34.32-3.11Q36.08-3.11 36.08-1.56L36.08-1.56Q36.08 0 34.32 0L34.32 0 24.07 0ZM57.16-2.26Q57.34-1.88 57.34-1.5L57.34-1.5Q57.34-0.82 56.79-0.35 56.25 0.12 55.55 0.12L55.55 0.12Q55.08 0.12 54.67-0.13 54.25-0.38 54.02-0.91L54.02-0.91 52.26-4.84 41.92-4.84 40.16-0.91Q39.93-0.38 39.52-0.13 39.11 0.12 38.61 0.12L38.61 0.12Q37.93 0.12 37.37-0.35 36.82-0.82 36.82-1.5L36.82-1.5Q36.82-1.88 36.99-2.26L36.99-2.26 45.09-19.67Q45.36-20.26 45.9-20.57 46.45-20.87 47.06-20.87L47.06-20.87Q47.68-20.87 48.22-20.57 48.76-20.26 49.03-19.67L49.03-19.67 57.16-2.26ZM47.09-16.5L43.22-7.78 50.97-7.78 47.09-16.5ZM76.36-20.84Q77.21-20.84 77.71-20.33 78.21-19.82 78.21-18.97L78.21-18.97 78.21-1.73Q78.21-0.88 77.7-0.35 77.18 0.18 76.36 0.18L76.36 0.18Q75.51 0.18 75.01-0.35 74.51-0.88 74.51-1.73L74.51-1.73 74.51-8.98 63.91-8.98 63.91-1.73Q63.91-0.88 63.4-0.35 62.89 0.18 62.03 0.18L62.03 0.18Q61.21 0.18 60.7-0.35 60.19-0.88 60.19-1.73L60.19-1.73 60.19-18.97Q60.19-19.82 60.68-20.33 61.18-20.84 62.03-20.84L62.03-20.84Q62.89-20.84 63.4-20.33 63.91-19.82 63.91-18.97L63.91-18.97 63.91-12.04 74.51-12.04 74.51-18.97Q74.51-19.82 75.01-20.33 75.51-20.84 76.36-20.84L76.36-20.84ZM98.35-20.84Q99.17-20.84 99.66-20.33 100.14-19.82 100.14-18.97L100.14-18.97 100.14-1.73Q100.14-0.88 99.64-0.35 99.14 0.18 98.35 0.18L98.35 0.18Q97.41 0.18 96.91-0.5L96.91-0.5 86.2-14.44 86.2-1.73Q86.2-0.88 85.73-0.35 85.26 0.18 84.44 0.18L84.44 0.18Q83.61 0.18 83.14-0.35 82.67-0.88 82.67-1.73L82.67-1.73 82.67-18.97Q82.67-19.82 83.17-20.33 83.67-20.84 84.49-20.84L84.49-20.84Q85.4-20.84 85.9-20.17L85.9-20.17 96.59-6.28 96.59-18.97Q96.59-19.82 97.07-20.33 97.56-20.84 98.35-20.84L98.35-20.84ZM106.48 0.18Q105.63 0.18 105.12-0.35 104.6-0.88 104.6-1.73L104.6-1.73 104.6-18.97Q104.6-19.82 105.12-20.33 105.63-20.84 106.48-20.84L106.48-20.84Q107.36-20.84 107.88-20.33 108.39-19.82 108.39-18.97L108.39-18.97 108.39-1.73Q108.39-0.88 107.88-0.35 107.36 0.18 106.48 0.18L106.48 0.18ZM128.91-2.85Q129.5-2.29 129.5-1.59L129.5-1.59Q129.5-0.91 128.99-0.4 128.47 0.12 127.77 0.12L127.77 0.12Q127.03 0.12 126.42-0.5L126.42-0.5 116.64-9.66 116.64-1.73Q116.64-0.88 116.13-0.35 115.61 0.18 114.73 0.18L114.73 0.18Q113.88 0.18 113.37-0.35 112.85-0.88 112.85-1.73L112.85-1.73 112.85-18.97Q112.85-19.82 113.37-20.33 113.88-20.84 114.73-20.84L114.73-20.84Q115.61-20.84 116.13-20.33 116.64-19.82 116.64-18.97L116.64-18.97 116.64-11.42 126.1-20.29Q126.62-20.82 127.3-20.82L127.3-20.82Q127.97-20.82 128.49-20.3 129-19.79 129-19.11L129-19.11Q129-18.44 128.41-17.88L128.41-17.88 120.52-10.66 128.91-2.85Z" transform="translate(-2.2300000190734863, 20.8700008392334)"></path></g></g></g></g> <!----></g></g><defs v-gra="od"></defs></svg>